# xmcd
#
# Track frame offsets: 
#        183
#        21588
#        41218
#        93720
#        104800
#        127955
#        146220
#        182685
#        202840
#
# Disc length: 2961 seconds
#
# Revision: 4
# Processed by: cddbd v1.5.2PL0 Copyright (c) Steve Scherf et al.
# Submitted via: ExactAudioCopyFreeDBPlugin 1.0
#
DISCID=890b8f09
DTITLE=Stevie Ray Vaughan and Double Trouble - Somewhere Over The Rainbo
DTITLE=w
DYEAR=1988
DGENRE=Bluesrock
TTITLE0=Shuffle
TTITLE1=Testify
TTITLE2=Voodoo Childe (Slight Return)
TTITLE3=Honey Bee
TTITLE4=Couldn't Stand The Weather
TTITLE5=Cold Shot
TTITLE6=Texas Flood
TTITLE7=Pride And Joy
TTITLE8=Rude Mood
EXTD=
EXTT0=
EXTT1=
EXTT2=
EXTT3=
EXTT4=
EXTT5=
EXTT6=
EXTT7=
EXTT8=
PLAYORDER=
